<svg id="Layer_1" data-name="Layer 1" xmlns="http://www.w3.org/2000/svg" xmlns:xlink="http://www.w3.org/1999/xlink" viewBox="0 0 1137.94 397.76"><defs><style>.cls-1{fill:none;}.cls-2{fill-opacity:0;fill-rule:evenodd;}.cls-3{fill:#de1b1b;}.cls-4{clip-path:url(#clip-path);}</style><clipPath id="clip-path" transform="translate(39.06)"><rect class="cls-1" width="1098.89" height="396.49"/></clipPath></defs><path class="cls-2" d="M-22.76,1.28H1076.13V397.76H-22.76Z" transform="translate(39.06)"/><path class="cls-2" d="M-10.85,39.47H1064.22V386.71H-10.85Z" transform="translate(39.06)"/><path class="cls-2" d="M952.38,28.55h138.36v70.9H952.38Z" transform="translate(39.06)"/><path class="cls-3" d="M996.08,58.43v25.2h-8.7V58.43H973.72v-7h36v7Zm60.37,25.2V61l-12,22.63h-8.35L1024.2,61V83.63h-8.69V51.43h11.81l13,24.37,13-24.37h11.77v32.2Z" transform="translate(39.06)"/><g class="cls-4"><path class="cls-2" d="M0,0H1098.89V396.49H0Z" transform="translate(39.06)"/><path class="cls-2" d="M-39.06,39H1092.31V386.22H-39.06Z" transform="translate(39.06)"/><path class="cls-3" d="M43.73,199.16q11-.27,18-5.93T71,177.7q2.3-9.9,2.44-33.82t.86-31.51Q75.52,100.34,79,93A32,32,0,0,1,100.89,74.7q5.43-1.42,17.76-1.43h8V95.76h-4.44q-14.91,0-19.78,5.37t-4.86,24q0,37.53-1.58,47.4-2.58,15.33-8.81,23.64T67.65,210.91Q83.42,217.5,90.5,231t7.09,44.33q0,27.92.58,33.22,1.14,9.75,5.8,13.61t18.26,3.87h4.44v22.48h-8q-14,0-20.34-2.29a34.13,34.13,0,0,1-15.19-10.67q-6-7.38-7.81-18.69t-1.92-37.1Q73.24,254,71,244.15a27.52,27.52,0,0,0-9.25-15.61q-6.93-5.73-18-6Z" transform="translate(39.06)"/><path class="cls-3" d="M1009.37,199.16v23.35q-11,.3-18,6a27.55,27.55,0,0,0-9.24,15.53q-2.28,9.81-2.42,33.73t-.86,31.5q-1.3,12.18-4.81,19.41A32.08,32.08,0,0,1,952.23,347q-5.46,1.57-17.77,1.57h-8V326.07h4.44q14.88,0,19.76-5.37t4.88-24.15q0-35.79,1.28-45.39,2.3-15.9,9.17-25.42t19.47-14.83Q969,203,962.24,190.07t-6.71-43.75q0-27.93-.72-33.37-1-9.6-5.66-13.4t-18.26-3.79h-4.44V73.27h8q14,0,20.35,2.28A33,33,0,0,1,970,86.16q6,7.44,7.81,18.77T979.73,142q.13,25.78,2.42,35.6a27.61,27.61,0,0,0,9.24,15.53Q998.34,198.88,1009.37,199.16Z" transform="translate(39.06)"/><path class="cls-2" d="M-3.83,46.9H1053.55V315.12H-3.83Z" transform="translate(39.06)"/><path class="cls-3" d="M161.47,326.7h-6.22Q130.88,301.29,120,272.2T109.2,216.78q0-28.71,11.83-58.53t34.22-49.75h6.22q-32.11,41-32.11,106.64Q129.36,284.64,161.47,326.7ZM888.14,108.5h6.22q24.48,25.43,35.33,54.31t10.84,55.61q0,28.71-11.91,58.53T894.36,326.7h-6.22q32.11-41,32.11-106.53Q920.25,150.57,888.14,108.5Z" transform="translate(39.06)"/><path class="cls-2" d="M86.4,106.71H963.31V289.77H86.4Z" transform="translate(39.06)"/><path class="cls-3" d="M259.54,186.79q-2.54-1.24-6.72-2.8a98.6,98.6,0,0,0-9.43-3,106.48,106.48,0,0,0-11.46-2.35,85.13,85.13,0,0,0-12.68-.94q-5.22,0-8.91.33a50.05,50.05,0,0,0-6.17.85,18.06,18.06,0,0,0-4,1.2,8.68,8.68,0,0,0-2.25,1.39,3.56,3.56,0,0,0-1,1.44,4.71,4.71,0,0,0-.22,1.29,4.25,4.25,0,0,0,2,3.43,19,19,0,0,0,5.33,2.61q3.39,1.13,7.87,2.14t9.55,2.09q5,1.06,10.4,2.34t10.43,3a72,72,0,0,1,9.53,3.93,36.36,36.36,0,0,1,7.89,5.25,22.5,22.5,0,0,1,5.34,6.9,19.67,19.67,0,0,1,1.95,8.92,24.77,24.77,0,0,1-2.28,11.06,23.7,23.7,0,0,1-6.09,7.81,30.6,30.6,0,0,1-8.83,5.11,59.33,59.33,0,0,1-10.5,3,86,86,0,0,1-11.14,1.38q-5.62.33-10.7.33a129.23,129.23,0,0,1-24.58-2.19,123.06,123.06,0,0,1-20-5.42V224.48a82,82,0,0,0,20.34,7.75,102.86,102.86,0,0,0,24.45,2.8,77.22,77.22,0,0,0,12.52-.82,30.77,30.77,0,0,0,7.59-2.07,8.8,8.8,0,0,0,3.71-2.77,5.32,5.32,0,0,0,1-2.88,4.71,4.71,0,0,0-1.95-3.73,18.21,18.21,0,0,0-5.35-2.8,65.68,65.68,0,0,0-7.87-2.22q-4.49-1-9.53-2t-10.39-2.19c-3.56-.78-7-1.7-10.38-2.76a78.29,78.29,0,0,1-9.55-3.71,35.64,35.64,0,0,1-7.87-5,22,22,0,0,1-5.34-6.71,19,19,0,0,1-2-8.82,23.32,23.32,0,0,1,2.08-10.22A22.53,22.53,0,0,1,180,169a29.59,29.59,0,0,1,8.2-4.91,54.8,54.8,0,0,1,9.8-2.93,82.48,82.48,0,0,1,10.41-1.44q5.28-.39,10-.39c3.47,0,7,.17,10.71.53s7.27.83,10.83,1.47,7,1.35,10.32,2.17,6.4,1.69,9.22,2.61ZM375.42,251v-37.3H314V251H289.81V161.59H314v32.55h61.45V161.59h24.16V251Zm134.43-69.2c-.65-.22-1.59-.51-2.83-.88s-2.68-.74-4.33-1.11-3.46-.67-5.44-.93a46.62,46.62,0,0,0-6.09-.39A44.6,44.6,0,0,0,479,180.12a51.64,51.64,0,0,0-10.52,4.23,60.07,60.07,0,0,0-9.07,6,91.36,91.36,0,0,0-7.71,6.86V251H427.57V161.59h24.15V176.1q4.36-3.24,8.94-6.26a77.53,77.53,0,0,1,9.58-5.38,59,59,0,0,1,10.51-3.75,47.82,47.82,0,0,1,11.72-1.4c1.57,0,3.16.08,4.78.23s3.21.35,4.75.56,3,.45,4.33.71,2.52.52,3.52.78v20.25ZM601,251v-8.78a73.4,73.4,0,0,1-9.94,4.48,95.63,95.63,0,0,1-22.84,5.36,109,109,0,0,1-12.27.69,70.2,70.2,0,0,1-14-1.36A38.35,38.35,0,0,1,530,247a24.47,24.47,0,0,1-8.36-8,22.13,22.13,0,0,1-3.16-12.12q0-9.06,4.94-15.07T538.56,202q10.16-3.84,25.67-5.92T601,192.78v-1.89a9.21,9.21,0,0,0-1.17-4.4,10.1,10.1,0,0,0-4.27-3.84,30.6,30.6,0,0,0-8.47-2.69,74.51,74.51,0,0,0-13.7-1,124,124,0,0,0-13,.68q-6.4.68-12.37,1.85t-11.3,2.73q-5.33,1.56-9.69,3.25V166q4.56-1.17,10.21-2.27T549,161.76q6.13-.81,12.38-1.3t12-.5a108.13,108.13,0,0,1,20.76,1.86,53.58,53.58,0,0,1,16.38,5.77,30.35,30.35,0,0,1,10.75,9.89,25.67,25.67,0,0,1,3.87,14.25V251Zm0-40.81q-13.93.51-23.67,1.5T561.14,214a57.82,57.82,0,0,0-10.11,2.8,20.41,20.41,0,0,0-5.5,3,6.61,6.61,0,0,0-2.25,3.13,11.12,11.12,0,0,0-.42,2.87,6,6,0,0,0,.84,3,7.17,7.17,0,0,0,2.95,2.56,20.32,20.32,0,0,0,5.64,1.76,50.57,50.57,0,0,0,8.86.64,73.57,73.57,0,0,0,11.58-.9,78.26,78.26,0,0,0,10.75-2.52,69,69,0,0,0,9.53-3.76,59.24,59.24,0,0,0,8-4.66ZM712.77,251H684.64l-45.23-89.45h27l32.55,67.31,32.48-67.31h27Zm136.07,0v-8.78a72.84,72.84,0,0,1-9.94,4.48,95.63,95.63,0,0,1-22.84,5.36,108.9,108.9,0,0,1-12.27.69,70.2,70.2,0,0,1-14-1.36,38.35,38.35,0,0,1-12-4.42,24.55,24.55,0,0,1-8.36-8,22.13,22.13,0,0,1-3.15-12.12q0-9.06,4.93-15.07T786.4,202q10.15-3.84,25.67-5.92t36.77-3.26v-1.89a9.21,9.21,0,0,0-1.17-4.4,10,10,0,0,0-4.27-3.84,30.6,30.6,0,0,0-8.47-2.69,74.51,74.51,0,0,0-13.7-1,123.81,123.81,0,0,0-13,.68q-6.4.68-12.38,1.85t-11.3,2.73q-5.33,1.56-9.68,3.25V166q4.54-1.17,10.2-2.27t11.8-1.92q6.12-.81,12.37-1.3t12-.5A108.32,108.32,0,0,1,842,161.82a53.61,53.61,0,0,1,16.37,5.77,30.35,30.35,0,0,1,10.75,9.89A25.67,25.67,0,0,1,873,191.73V251Zm0-40.81q-13.94.51-23.67,1.5T809,214a57.82,57.82,0,0,0-10.11,2.8,20.41,20.41,0,0,0-5.5,3,6.61,6.61,0,0,0-2.25,3.13,11.12,11.12,0,0,0-.42,2.87,6,6,0,0,0,.84,3,7.2,7.2,0,0,0,3,2.56,20.1,20.1,0,0,0,5.64,1.76,50.41,50.41,0,0,0,8.86.64,73.54,73.54,0,0,0,11.57-.9,77.92,77.92,0,0,0,10.75-2.52,69.13,69.13,0,0,0,9.54-3.76,59.1,59.1,0,0,0,8-4.66Z" transform="translate(39.06)"/><path class="cls-2" d="M984.56,52.64h88v73.2h-88Z" transform="translate(39.06)"/></g><rect class="cls-1" x="16.3" y="1.28" width="1098.89" height="396.49"/></svg>